<?xml version="1.0" standalone="no"?>
<!DOCTYPE svg PUBLIC "-//W3C//DTD SVG 20010904//EN"
 "http://www.w3.org/TR/2001/REC-SVG-20010904/DTD/svg10.dtd">
<svg version="1.0" xmlns="http://www.w3.org/2000/svg"
 width="409.000000pt" height="409.000000pt" viewBox="0 0 409.000000 409.000000"
 preserveAspectRatio="xMidYMid meet">
<metadata>
Created by potrace 1.14, written by Peter Selinger 2001-2017
</metadata>
<g transform="translate(0.000000,409.000000) scale(0.100000,-0.100000)"
fill="#000000" stroke="none">
<path d="M1780 3905 c-331 -49 -684 -212 -930 -427 -366 -321 -571 -701 -641
-1186 -19 -139 -6 -460 25 -608 163 -769 775 -1347 1551 -1464 779 -118 1553
274 1923 973 59 112 127 287 155 402 48 195 52 230 52 475 -1 216 -3 245 -28
361 -159 749 -747 1328 -1487 1464 -129 24 -488 29 -620 10z m174 -101 c3 -9
6 -33 6 -55 0 -47 -17 -51 -45 -9 -26 39 -35 38 -28 -5 6 -39 -11 -49 -21 -12
-10 39 -7 87 7 87 6 0 25 -14 40 -32 l28 -33 -7 38 c-6 37 8 53 20 21z m119
10 c12 -12 -4 -25 -18 -14 -22 18 -45 1 -45 -36 0 -30 3 -34 25 -34 29 0 33
15 8 29 -15 9 -14 10 10 11 23 0 27 -4 27 -28 0 -26 -3 -29 -38 -30 -31 -1
-41 3 -49 21 -10 22 -10 45 1 73 5 14 67 20 79 8z m125 -31 l17 -36 5 32 c3
17 8 32 13 31 4 0 7 -2 7 -5 0 -3 0 -28 0 -56 0 -61 -14 -62 -47 -3 l-23 39 0
-32 c0 -27 -15 -52 -25 -42 -1 2 0 28 2 57 7 63 25 69 51 15z m149 -36 c10
-59 7 -70 -11 -44 -15 20 -52 23 -59 5 -2 -7 -7 -10 -11 -6 -4 3 4 29 18 57
32 63 51 59 63 -12z m-522 3 c24 -47 23 -64 -2 -39 -14 14 -53 2 -53 -17 0 -8
-5 -14 -11 -14 -10 0 -6 54 7 103 9 31 33 18 59 -33z m-120 10 c-15 -29 -15
-31 12 -55 21 -18 24 -24 12 -25 -9 0 -22 7 -29 15 -18 21 -33 19 -25 -4 3
-11 2 -22 -3 -25 -6 -3 -15 14 -21 39 -14 54 -14 65 -1 65 6 0 10 -7 10 -15 0
-23 16 -18 28 10 6 14 16 25 22 25 6 0 4 -12 -5 -30z m769 9 c16 -15 -1 -21
-22 -8 -17 10 -23 10 -37 -1 -24 -20 -16 -64 13 -68 12 -2 22 1 22 7 0 6 -4
11 -10 11 -5 0 -10 5 -10 10 0 6 9 10 21 10 17 0 20 -5 17 -32 -3 -29 -6 -33
-28 -29 -45 6 -60 20 -60 56 0 54 56 80 94 44z m-861 -38 c3 -16 9 -40 13 -55
4 -16 2 -26 -5 -26 -5 0 -15 18 -21 41 -6 22 -14 47 -17 55 -3 8 1 14 10 14 8
0 17 -13 20 -29z m919 7 c-6 -22 -5 -23 22 -5 35 23 49 12 17 -12 -24 -18 -24
-29 -6 -74 5 -12 3 -16 -7 -12 -8 3 -19 18 -25 33 -11 27 -11 27 -18 5 -7 -23
-25 -32 -25 -13 0 29 26 100 36 100 8 0 10 -8 6 -22z m-1007 -49 c10 -28 17
-34 39 -32 14 1 26 -2 26 -7 0 -7 -61 -33 -65 -28 -3 4 -35 101 -35 106 0 2 5
2 12 0 6 -2 17 -20 23 -39z m1145 -29 c0 -59 -12 -80 -23 -39 -5 18 -11 21
-36 16 -17 -4 -31 -4 -31 -1 0 12 66 84 78 84 8 0 12 -19 12 -60z m-1202 20
c2 -14 11 -33 20 -43 20 -23 7 -35 -16 -14 -28 25 -44 21 -36 -8 11 -43 -12
-27 -31 22 -17 45 -17 47 1 60 28 21 58 12 62 -17z m1271 -22 c-10 -19 -9 -20
7 -13 11 4 28 9 39 12 20 4 20 4 1 -11 -11 -9 -24 -16 -29 -16 -8 0 0 -59 9
-69 3 -3 22 12 43 33 51 50 74 44 65 -16 -8 -58 -11 -68 -25 -68 -6 0 -9 7 -5
15 7 19 -32 41 -46 27 -18 -18 -56 8 -64 42 -7 30 -7 30 -17 9 -10 -23 -27
-31 -27 -14 0 23 41 102 50 96 7 -4 6 -13 -1 -27z m-1367 -35 c42 -41 48 -58
18 -48 -30 10 -60 -3 -53 -22 4 -11 2 -14 -8 -11 -19 6 -26 118 -7 118 6 0 29
-17 50 -37z m-96 -48 c28 -48 25 -76 -4 -37 -15 20 -20 21 -36 9 -15 -11 -16
-17 -7 -35 7 -13 7 -23 2 -27 -12 -7 -66 83 -56 93 3 4 12 0 19 -10 16 -22 60
-1 46 22 -12 19 -12 30 0 30 5 0 21 -20 36 -45z m1674 9 c0 -13 -53 -94 -61
-94 -14 0 -11 10 16 57 22 37 45 56 45 37z m-595 -34 c313 -65 549 -193 776
-419 265 -266 408 -571 439 -940 39 -448 -119 -882 -435 -1196 -131 -131 -236
-208 -392 -286 -225 -114 -419 -159 -685 -159 -193 0 -341 24 -504 81 -365
127 -681 410 -858 766 -285 572 -167 1278 289 1736 194 195 467 347 730 408
190 44 455 47 640 9z m660 -10 c22 -24 13 -39 -10 -16 -27 26 -37 8 -13 -24
17 -24 19 -32 8 -45 -7 -8 -18 -15 -25 -15 -21 0 -59 36 -51 49 5 8 13 5 26
-11 32 -40 39 -10 8 34 -9 13 -9 20 1 32 18 21 34 20 56 -4z m-1854 -32 c44
-35 50 -51 16 -43 -25 7 -54 -16 -43 -34 4 -5 2 -12 -3 -16 -6 -3 -15 14 -21
37 -6 24 -13 49 -16 56 -5 16 3 32 17 32 6 0 28 -14 50 -32z m-87 -60 c19 -24
30 -45 24 -47 -6 -2 -19 7 -29 20 -20 26 -24 15 -10 -24 13 -34 3 -40 -29 -17
-39 28 -45 25 -20 -9 11 -16 16 -32 12 -35 -15 -9 -76 84 -64 96 7 7 20 4 42
-12 37 -26 44 -23 30 14 -25 67 -6 73 44 14z m2030 33 c8 -12 -23 -111 -34
-111 -5 0 -10 10 -12 23 -2 15 -10 22 -28 24 -14 0 -29 1 -35 2 -11 1 84 71
96 71 4 0 10 -4 13 -9z m114 -93 c7 -7 12 -19 12 -27 -1 -14 -3 -13 -14 2 -7
9 -19 17 -26 17 -8 0 -9 -6 -5 -17 15 -34 11 -67 -8 -71 -21 -4 -57 24 -57 45
0 20 13 16 28 -8 10 -16 17 -18 25 -10 8 8 8 14 -1 23 -7 7 -12 22 -12 35 0
17 6 23 23 23 13 0 28 -5 35 -12z m-2305 -54 c57 -29 64 -38 31 -44 -23 -4
-30 -11 -32 -33 -5 -40 -15 -33 -40 24 -30 71 -20 84 41 53z m2387 -25 c0 -23
-43 -108 -52 -103 -5 3 -7 12 -4 19 7 18 -28 47 -48 39 -9 -3 -16 -2 -16 3 0
11 102 62 113 56 4 -2 7 -9 7 -14z m-2480 -37 c0 -4 -9 -13 -20 -20 -26 -16
-25 -37 1 -56 26 -18 49 -11 49 16 0 17 -3 18 -14 9 -21 -18 -28 4 -7 23 16
15 19 14 39 -7 l22 -23 -30 -29 c-29 -28 -32 -29 -58 -14 -38 21 -51 63 -27
89 18 20 45 27 45 12z m2574 -61 c23 -26 17 -65 -10 -69 -11 -2 -26 4 -33 12
-10 12 -18 13 -33 5 -35 -19 -31 -2 9 35 21 19 41 36 44 36 3 0 14 -9 23 -19z
m-2593 -89 c-7 -2 -20 3 -30 12 -28 26 -34 18 -11 -14 25 -36 12 -47 -36 -30
l-29 10 27 -24 c16 -14 24 -27 19 -30 -9 -6 -91 53 -91 66 0 16 21 18 56 3 20
-8 39 -14 40 -12 2 2 -7 19 -21 39 -17 25 -21 38 -13 46 8 8 23 1 56 -26 24
-20 39 -38 33 -40z m2665 -6 c5 -14 -50 -106 -63 -106 -3 0 -3 10 0 22 7 26
-8 48 -34 48 -34 0 -20 16 29 32 63 20 62 20 68 4z m68 -98 c18 -25 21 -48 7
-48 -5 0 -12 11 -15 25 -7 28 -32 33 -60 12 -22 -16 -14 -57 10 -57 11 0 13 6
8 23 -7 22 -7 22 15 2 l22 -19 -23 -18 c-28 -21 -38 -22 -38 -4 0 8 -7 16 -15
20 -23 8 -18 53 7 70 32 22 64 20 82 -6z m-2922 -8 c-28 -27 -28 -36 4 -56 23
-16 27 -16 41 -2 20 20 8 45 -13 27 -18 -14 -18 1 -1 25 12 17 14 16 37 -4 17
-14 21 -23 13 -26 -7 -3 -13 -11 -13 -19 0 -42 -68 -42 -96 0 -15 23 -15 27 0
50 9 14 24 25 33 25 14 0 13 -3 -5 -20z m28 -127 c10 -9 -27 -23 -65 -23 l-40
-1 33 -16 c17 -9 32 -23 32 -30 0 -10 -14 -6 -50 14 -27 15 -49 33 -47 38 2 6
23 12 48 15 l44 5 -33 18 c-18 10 -30 22 -26 28 4 8 78 -26 104 -48z m2906 10
c-4 -4 -11 -1 -16 7 -16 25 -11 35 7 17 9 -9 13 -20 9 -24z m68 -12 c3 -4 -12
-16 -34 -26 -22 -10 -40 -24 -40 -32 0 -22 30 -27 66 -10 37 18 57 7 21 -11
-59 -31 -76 -32 -92 -9 -24 34 -18 55 23 76 42 23 49 24 56 12z m-3062 -128
c30 -9 7 -31 -40 -38 l-47 -7 38 -15 c33 -14 50 -33 28 -33 -18 0 -101 41
-101 50 0 5 12 12 28 16 53 11 59 16 30 27 -16 6 -28 17 -28 24 0 10 8 10 38
-3 20 -9 45 -18 54 -21z m3098 -30 c-23 -29 -14 -41 19 -24 13 7 22 8 26 1 5
-9 -30 -27 -83 -44 -29 -10 -29 12 -1 48 24 31 20 43 -9 27 -25 -13 -42 -14
-42 -2 0 5 24 18 53 29 61 23 73 11 37 -35z m63 -83 c-4 -4 -25 -13 -45 -20
-33 -10 -37 -15 -32 -36 4 -14 2 -24 -4 -24 -10 0 -28 58 -20 64 1 2 23 10 48
18 44 15 70 14 53 -2z m-3193 -10 c0 -5 -6 -10 -14 -10 -18 0 -30 -30 -16 -44
12 -12 13 -26 2 -26 -16 0 -92 64 -92 77 0 9 18 13 60 13 33 0 60 -4 60 -10z
m-30 -112 c0 -5 -13 -7 -30 -3 -18 4 -30 2 -30 -3 0 -6 -3 -17 -6 -26 -4 -10
2 -17 20 -22 14 -3 26 -10 26 -15 0 -12 -12 -11 -66 2 -48 12 -59 29 -19 29
20 0 25 5 25 25 0 16 -6 25 -15 25 -8 0 -15 6 -15 14 0 11 9 11 55 -2 30 -8
55 -19 55 -24z m3223 26 c49 -9 47 -26 -9 -64 -42 -30 -73 -35 -46 -8 19 19
14 49 -8 55 -11 3 -20 9 -20 14 0 10 30 11 83 3z m65 -132 c4 -43 -12 -62 -53
-62 -36 0 -49 12 -59 52 -5 24 -3 28 21 34 16 3 33 7 38 9 31 11 50 -1 53 -33z
m-3318 -2 c0 -5 -4 -10 -10 -10 -5 0 -15 -10 -21 -22 -9 -17 -8 -24 5 -34 34
-24 -3 -23 -48 2 -68 38 -62 54 24 67 45 7 50 7 50 -3z m-36 -106 c31 -12 16
-25 -21 -19 l-38 5 33 -17 c17 -9 32 -22 32 -29 0 -6 -15 -15 -32 -19 -31 -8
-32 -8 -8 -12 45 -8 46 -23 3 -23 -82 0 -102 31 -30 47 l42 9 -37 19 c-50 25
-50 45 1 45 22 0 46 -3 55 -6z m3376 -23 c0 -9 -48 -21 -86 -21 -36 0 -29 18
9 23 60 7 77 7 77 -2z m5 -58 c0 -7 -15 -24 -34 -38 l-35 -25 37 0 c20 0 37
-4 37 -10 0 -5 -25 -10 -55 -10 -30 0 -55 3 -55 8 0 4 14 19 32 34 l33 27 -37
1 c-52 0 -48 18 5 23 59 5 72 3 72 -10z m-3375 -62 c0 -5 -7 -11 -15 -15 -18
-7 -20 -53 -2 -59 6 -2 9 -7 6 -11 -10 -11 -104 28 -107 45 -2 10 12 20 45 31
57 19 73 21 73 9z m3376 -79 c14 -28 7 -62 -12 -62 -17 0 -18 12 -2 28 16 16
-7 42 -39 42 -29 0 -41 -25 -24 -52 11 -17 10 -19 -6 -16 -22 4 -30 53 -12 74
19 24 81 14 95 -14z m-3381 -53 c7 -22 -12 -62 -26 -53 -7 4 -7 10 0 17 15 15
14 37 -3 37 -8 0 -19 -13 -25 -30 -10 -31 -29 -38 -49 -18 -15 15 -16 54 -2
63 6 4 10 -7 10 -24 0 -37 17 -41 26 -6 11 45 57 54 69 14z m3295 -39 c0 -5
-4 -10 -10 -10 -5 0 -10 5 -10 10 0 6 5 10 10 10 6 0 10 -4 10 -10z m-2300
-1370 c14 -7 22 -31 31 -87 l13 -78 28 62 c20 46 32 61 43 57 8 -4 15 -8 15
-10 0 -14 -75 -184 -81 -184 -20 0 -37 34 -44 86 -11 90 -15 92 -46 25 -26
-58 -41 -72 -53 -52 -5 8 64 191 72 191 2 0 12 -4 22 -10z m1262 -95 c17 -39
32 -72 34 -74 2 -2 21 4 44 13 49 20 50 20 50 2 0 -12 -108 -71 -116 -64 -14
15 -74 173 -70 185 11 26 27 9 58 -62z m-99 -47 c71 -98 71 -97 51 -105 -11
-4 -22 1 -33 15 -14 20 -20 21 -53 10 -32 -10 -38 -16 -38 -40 0 -22 -5 -28
-21 -28 -21 0 -22 2 -15 102 10 145 29 153 109 46z m-897 49 c1 -1 5 -50 9
-109 7 -104 7 -107 -13 -101 -13 3 -22 15 -24 31 -2 20 -11 28 -37 35 -30 7
-37 5 -51 -13 -10 -14 -22 -19 -33 -14 -21 8 -25 0 43 102 49 74 58 82 80 76
14 -3 26 -6 26 -7z m167 -33 c46 -5 57 -10 55 -23 -2 -11 -12 -15 -34 -13
l-31 3 -7 -63 c-11 -96 -15 -106 -37 -101 -13 4 -17 12 -14 27 18 79 22 138 9
142 -8 2 -21 6 -29 9 -8 2 -15 12 -15 21 0 12 6 15 23 10 13 -3 49 -8 80 -12z
m559 -76 c9 -51 14 -96 11 -100 -13 -23 -62 15 -129 98 -14 17 -15 15 -9 -31
4 -27 9 -60 12 -72 4 -18 1 -23 -15 -23 -20 0 -26 22 -47 158 -6 40 -6 42 19
42 18 0 37 -14 68 -50 45 -52 63 -63 54 -32 -2 9 -8 36 -11 60 -6 37 -5 42 13
42 16 0 21 -13 34 -92z m-442 30 c0 -18 -3 -63 -7 -100 -5 -59 -9 -68 -26 -68
-18 0 -19 5 -13 61 3 34 6 79 6 100 0 32 3 39 20 39 16 0 20 -7 20 -32z m185
26 c24 -9 45 -58 45 -102 0 -76 -63 -118 -133 -88 -28 11 -38 23 -48 55 -16
53 1 118 34 131 26 10 79 12 102 4z"/>
<path d="M2307 3765 c-8 -20 -4 -29 11 -24 5 2 6 13 2 23 -6 19 -7 19 -13 1z"/>
<path d="M1780 3751 c0 -12 5 -21 10 -21 6 0 10 6 10 14 0 8 -4 18 -10 21 -5
3 -10 -3 -10 -14z"/>
<path d="M2637 3676 c-4 -10 -5 -21 -2 -24 9 -9 17 6 13 25 -3 17 -4 17 -11
-1z"/>
<path d="M1417 3684 c-9 -10 2 -24 19 -24 8 0 14 7 14 15 0 15 -21 21 -33 9z"/>
<path d="M2834 3589 c-3 -6 -1 -16 5 -22 8 -8 11 -5 11 11 0 24 -5 28 -16 11z"/>
<path d="M1330 3611 c0 -11 4 -21 9 -21 18 0 21 18 6 30 -13 10 -15 9 -15 -9z"/>
<path d="M1865 3533 c-11 -2 -58 -11 -105 -20 -120 -22 -267 -75 -389 -140
-288 -151 -519 -393 -656 -686 -89 -190 -124 -346 -132 -577 -4 -149 -2 -193
15 -295 55 -319 210 -609 446 -832 287 -272 684 -419 1081 -400 371 17 712
166 970 422 183 181 293 357 370 590 60 180 70 247 69 475 0 219 -11 294 -69
466 -112 334 -361 635 -670 813 -152 87 -353 157 -520 181 -68 9 -370 12 -410
3z m536 -53 c5 0 9 -7 9 -15 0 -10 -11 -15 -35 -15 -24 0 -35 5 -35 14 0 16
19 26 38 20 8 -2 18 -4 23 -4z m-245 -35 c18 -14 18 -14 -11 -15 -16 -1 -57
-11 -90 -23 -52 -19 -60 -26 -63 -50 -4 -36 20 -45 64 -23 36 17 71 20 98 10
28 -11 17 -24 -21 -24 -35 0 -36 0 -18 -20 18 -19 17 -20 -6 -20 -14 0 -29 4
-35 10 -6 6 -20 6 -40 -2 -17 -6 -39 -8 -48 -5 -25 10 -39 57 -26 86 8 17 8
27 0 35 -22 22 -11 37 23 31 21 -4 46 -1 68 8 44 20 80 21 105 2z m90 -29 c11
-11 22 -12 46 -5 66 18 121 10 138 -21 9 -16 6 -18 -30 -13 -38 5 -40 4 -40
-22 0 -16 -12 -41 -30 -62 -16 -18 -30 -40 -30 -48 0 -9 -6 -12 -15 -9 -23 9
-18 38 11 68 21 20 23 26 10 26 -19 0 -22 26 -3 33 6 3 -2 6 -20 6 -47 1 -63
11 -63 37 0 28 6 30 26 10z m-563 -13 c4 -4 -6 -12 -23 -19 -41 -18 -70 -69
-70 -125 0 -95 -69 -120 -109 -40 -11 21 -28 42 -38 46 -15 5 -12 9 16 21 41
17 41 17 41 -2 0 -11 5 -14 16 -10 9 3 19 6 24 6 5 0 14 16 20 35 19 57 98
114 123 88z m226 -32 c10 -7 6 -11 -17 -15 -16 -4 -49 -20 -73 -35 -49 -31
-84 -42 -105 -34 -24 9 -16 33 12 33 14 0 39 9 54 20 52 37 101 49 129 31z
m611 -26 c8 -10 30 -15 62 -15 52 0 108 -24 108 -47 0 -15 -16 -17 -25 -3 -3
6 -19 10 -35 10 -22 0 -33 -7 -45 -29 -14 -29 -14 -29 14 -39 16 -6 35 -20 41
-33 11 -20 10 -21 -6 -14 -11 4 -52 11 -92 16 -73 8 -102 20 -102 45 0 22 20
27 39 10 23 -21 57 -20 64 2 2 9 8 25 12 35 6 13 2 17 -18 17 -31 0 -58 25
-51 45 8 19 18 19 34 0z m-793 -237 l10 -33 13 33 c17 46 30 40 29 -15 -1 -42
-2 -44 -9 -18 l-7 30 -7 -27 c-10 -34 -24 -36 -36 -5 l-9 22 0 -22 c-2 -44
-21 -23 -21 22 0 54 22 62 37 13z m140 -13 c7 -21 10 -41 7 -44 -4 -3 -9 0
-11 7 -5 14 -43 16 -43 2 0 -5 -5 -10 -11 -10 -6 0 -8 9 -3 23 25 80 39 85 61
22z m43 30 c0 -8 2 -15 4 -15 2 0 11 -3 20 -6 12 -4 16 0 16 15 0 12 5 21 10
21 6 0 10 -20 10 -45 0 -25 -4 -45 -10 -45 -5 0 -10 9 -10 20 0 13 -7 20 -20
20 -13 0 -20 -7 -20 -20 0 -11 -4 -20 -9 -20 -5 0 -9 20 -9 45 0 25 4 45 9 45
5 0 9 -7 9 -15z m139 -16 c11 -31 15 -77 4 -51 -6 15 -35 16 -51 0 -15 -15
-15 -6 0 43 14 47 32 50 47 8z m87 1 c1 -14 5 -33 9 -42 4 -11 3 -18 -3 -18
-6 0 -14 9 -17 20 -3 11 -11 20 -16 20 -5 0 -9 -9 -9 -20 0 -11 -4 -20 -10
-20 -5 0 -10 21 -10 46 0 44 1 45 28 42 21 -2 27 -9 28 -28z m69 -51 c17 -7
16 -8 -7 -8 -27 -1 -28 1 -27 47 l2 47 6 -39 c4 -26 13 -42 26 -47z m55 36 c0
-25 -4 -45 -10 -45 -5 0 -10 20 -10 45 0 25 5 45 10 45 6 0 10 -20 10 -45z
m40 28 c0 -14 2 -14 20 2 22 20 26 14 8 -14 -9 -15 -9 -23 1 -35 20 -24 27
-20 40 24 15 51 35 51 49 1 15 -49 15 -58 0 -43 -15 15 -48 16 -48 2 0 -16
-32 -12 -52 7 -17 15 -18 15 -18 0 0 -10 -4 -17 -10 -17 -5 0 -10 20 -10 45 0
25 5 45 10 45 6 0 10 -7 10 -17z m-171 -284 c28 -51 51 -104 51 -118 0 -14
-13 -125 -29 -246 -16 -121 -26 -223 -24 -227 21 -37 41 38 110 415 2 15 9 25
14 21 12 -7 59 -100 59 -116 0 -8 -23 -87 -51 -178 -48 -156 -50 -165 -33
-177 10 -8 25 -12 33 -11 8 2 51 73 96 158 l83 155 63 21 c35 12 66 20 68 18
3 -2 -53 -89 -122 -193 -70 -104 -127 -194 -127 -200 0 -6 6 -11 14 -11 13 0
52 47 249 307 34 45 69 85 77 88 31 13 181 55 196 55 11 0 14 -5 9 -17 -4 -10
-20 -54 -36 -98 l-30 -80 -195 -158 c-176 -144 -225 -191 -177 -173 14 6 205
133 355 236 21 14 21 14 16 -21 -15 -91 -24 -100 -189 -186 -155 -80 -173 -97
-150 -132 10 -15 8 -15 273 63 l88 26 55 -27 c55 -27 67 -40 43 -47 -7 -2
-103 -21 -213 -42 -110 -20 -206 -42 -213 -47 -42 -33 36 -29 385 19 l111 16
97 -52 c53 -29 95 -56 93 -62 -2 -5 -44 -27 -93 -49 l-89 -40 -250 26 c-137
14 -251 23 -254 20 -14 -14 28 -26 221 -64 114 -23 210 -41 213 -41 2 0 4 -4
4 -8 0 -5 -26 -21 -58 -36 l-58 -28 -169 52 c-161 50 -169 51 -182 34 -8 -10
-12 -25 -11 -32 2 -8 73 -51 158 -97 l155 -83 21 -63 c12 -35 20 -66 18 -68
-4 -5 -161 98 -292 191 -88 62 -102 68 -102 41 1 -16 123 -116 326 -268 29
-22 57 -49 62 -60 14 -32 56 -195 51 -200 -3 -2 -43 9 -89 26 -97 35 -108 45
-265 239 -133 164 -161 195 -168 184 -3 -6 51 -94 120 -198 69 -103 124 -189
122 -191 -2 -2 -33 6 -68 18 -53 18 -67 28 -83 57 -10 19 -46 88 -80 153 -62
119 -75 131 -111 105 -15 -12 -12 -28 35 -180 l51 -168 -28 -55 c-34 -67 -42
-73 -49 -38 -3 16 -22 114 -42 220 -24 128 -41 193 -50 197 -18 7 -18 -33 1
-184 7 -63 19 -160 26 -215 l12 -100 -53 -92 c-29 -51 -56 -93 -60 -93 -4 0
-25 40 -47 90 -38 87 -39 91 -31 162 20 195 38 421 33 426 -14 14 -25 -25 -59
-208 -21 -107 -41 -204 -45 -215 -6 -16 -13 -9 -39 43 l-32 63 50 166 c28 91
50 166 48 168 -19 15 -52 25 -59 18 -5 -5 -44 -74 -87 -154 l-77 -144 -57 -20
c-31 -10 -60 -16 -64 -13 -3 4 48 88 115 187 78 117 117 182 110 187 -7 4 -19
-2 -28 -13 -48 -61 -276 -340 -286 -351 -12 -13 -196 -84 -202 -78 -2 2 9 50
25 107 l29 104 189 148 c176 138 212 174 173 171 -8 -1 -93 -54 -188 -118 -95
-65 -175 -115 -177 -113 -9 9 27 115 44 129 9 9 76 46 147 83 153 80 157 85
131 120 -15 21 -9 22 -251 -50 l-90 -26 -57 27 c-32 15 -58 31 -58 36 0 4 2 8
5 8 3 0 63 11 133 25 70 14 164 32 210 41 75 15 95 25 75 37 -5 3 -116 -6
-248 -19 l-240 -24 -92 42 c-51 23 -93 45 -93 48 0 4 43 30 96 59 l97 52 131
-16 c72 -9 177 -23 234 -31 127 -17 122 -18 122 4 0 15 -29 23 -197 56 -233
45 -235 45 -228 55 2 5 29 21 58 36 l54 27 119 -37 c65 -20 139 -43 163 -51
40 -13 45 -12 57 4 28 36 16 47 -133 126 -82 43 -151 84 -155 90 -11 16 -40
117 -35 122 2 2 83 -50 180 -116 97 -66 181 -120 187 -120 32 0 -12 41 -298
272 -66 55 -71 62 -101 143 -17 47 -31 92 -31 99 0 10 29 5 107 -19 94 -27
110 -35 133 -66 75 -102 273 -349 280 -349 27 0 8 37 -105 204 -69 101 -122
187 -118 189 5 3 35 -5 68 -17 l60 -21 77 -144 c43 -80 78 -148 78 -153 0 -11
41 -10 59 1 13 8 7 37 -37 180 l-53 171 32 61 c17 34 34 58 38 53 4 -5 20 -79
36 -164 45 -247 51 -274 63 -278 7 -2 12 6 12 20 0 34 -30 330 -35 348 -2 8
-5 45 -6 82 -2 59 3 78 37 153 21 46 42 85 46 85 3 0 29 -41 57 -91z m-347
-154 c8 -19 8 -31 0 -51 -10 -21 -18 -25 -50 -22 -34 3 -37 6 -40 36 -4 42 12
62 49 62 22 0 32 -7 41 -25z m670 -22 c10 -9 18 -22 18 -29 0 -19 -29 -44 -50
-44 -22 0 -50 25 -50 45 0 19 28 45 47 45 9 0 25 -7 35 -17z m-82 -172 c-13
-45 -91 -221 -101 -227 -16 -9 -10 15 22 94 28 72 75 162 84 162 2 0 0 -13 -5
-29z m-537 -24 c32 -66 70 -177 62 -177 -10 0 -36 51 -64 128 -30 80 -28 114
2 49z m1085 -259 c21 -21 14 -66 -13 -84 -45 -29 -85 5 -71 61 8 32 61 46 84
23z m-1610 -10 c17 -17 15 -53 -3 -68 -12 -10 -21 -10 -40 -2 -29 13 -33 43
-9 66 19 19 36 20 52 4z m177 -113 c111 -42 200 -93 103 -59 -49 17 -186 82
-177 83 4 1 37 -10 74 -24z m1265 20 c0 -14 -215 -103 -226 -93 -6 6 89 53
161 79 53 19 65 22 65 14z m-1130 -469 c0 -5 -159 -72 -190 -80 -33 -9 38 31
110 61 52 21 80 28 80 19z m1060 -44 c47 -20 78 -38 69 -40 -20 -4 -196 66
-206 81 -9 15 40 1 137 -41z m250 -121 c0 -34 -17 -51 -50 -51 -51 0 -67 74
-21 96 33 17 71 -7 71 -45z m-1620 35 c28 -35 -11 -93 -47 -70 -24 15 -28 48
-8 68 20 20 39 20 55 2z m1034 -268 c37 -89 43 -113 27 -104 -10 6 -101 217
-101 232 1 22 42 -49 74 -128z m-484 16 c-30 -76 -49 -109 -57 -101 -4 5 37
118 64 175 32 66 26 8 -7 -74z m593 -225 c20 -28 10 -58 -21 -66 -48 -12 -81
37 -47 71 22 22 51 20 68 -5z m-681 -16 c37 -33 17 -83 -34 -83 -30 0 -48 23
-48 64 0 37 49 49 82 19z"/>
<path d="M1527 3243 c-4 -3 -7 -13 -7 -20 0 -21 33 -11 36 10 2 17 -16 24 -29
10z"/>
<path d="M1830 3096 c0 -9 5 -16 10 -16 6 0 10 4 10 9 0 6 -4 13 -10 16 -5 3
-10 -1 -10 -9z"/>
<path d="M2020 3105 c0 -8 4 -15 10 -15 5 0 7 7 4 15 -4 8 -8 15 -10 15 -2 0
-4 -7 -4 -15z"/>
<path d="M2100 3116 c0 -9 7 -16 16 -16 9 0 14 5 12 12 -6 18 -28 21 -28 4z"/>
<path d="M2387 3105 c-4 -8 -2 -17 3 -20 6 -4 10 3 10 14 0 25 -6 27 -13 6z"/>
<path d="M1120 3490 c0 -13 5 -18 15 -14 12 5 13 10 4 20 -15 19 -19 18 -19
-6z"/>
<path d="M3061 3446 c-8 -10 -9 -16 -1 -21 5 -3 13 1 16 10 9 22 -1 29 -15 11z"/>
<path d="M882 3309 c2 -7 10 -15 17 -17 8 -3 12 1 9 9 -2 7 -10 15 -17 17 -8
3 -12 -1 -9 -9z"/>
<path d="M3251 3286 c-8 -9 -8 -16 -2 -20 6 -4 15 3 21 14 12 23 -2 27 -19 6z"/>
<path d="M3355 3190 c-8 -14 3 -30 21 -30 8 0 14 9 14 20 0 21 -24 28 -35 10z"/>
<path d="M3415 3089 c-4 -6 -5 -13 -2 -16 7 -7 27 6 27 18 0 12 -17 12 -25 -2z"/>
<path d="M435 2610 c3 -5 13 -10 21 -10 8 0 14 5 14 10 0 6 -9 10 -21 10 -11
0 -17 -4 -14 -10z"/>
<path d="M3685 2521 c-7 -12 12 -24 25 -16 11 7 4 25 -10 25 -5 0 -11 -4 -15
-9z"/>
<path d="M3720 2423 c-8 -2 -21 -6 -28 -9 -10 -3 -10 -9 -2 -24 17 -32 64 -24
68 13 3 27 -5 31 -38 20z"/>
<path d="M380 2375 c7 -8 16 -15 21 -15 5 0 9 7 9 15 0 9 -9 15 -21 15 -18 0
-19 -2 -9 -15z"/>
<path d="M350 2120 c0 -5 7 -10 15 -10 8 0 15 5 15 10 0 6 -7 10 -15 10 -8 0
-15 -4 -15 -10z"/>
<path d="M2510 463 c0 -46 6 -51 34 -30 17 13 17 15 -8 43 l-25 29 -1 -42z"/>
<path d="M1626 459 c-15 -26 -16 -33 -5 -40 35 -22 46 -5 31 49 -7 23 -7 23
-26 -9z"/>
<path d="M2066 428 c-34 -49 -8 -118 44 -118 33 0 50 23 50 67 0 39 -26 73
-55 73 -13 0 -31 -10 -39 -22z"/>
</g>
</svg>
